<?xml version="1.0" standalone="no"?>
<!DOCTYPE svg PUBLIC "-//W3C//DTD SVG 20010904//EN"
 "http://www.w3.org/TR/2001/REC-SVG-20010904/DTD/svg10.dtd">
<svg version="1.0" xmlns="http://www.w3.org/2000/svg"
 width="800.000000pt" height="800.000000pt" viewBox="0 0 800.000000 800.000000"
 preserveAspectRatio="xMidYMid meet">
<metadata>
Created by potrace 1.14, written by Peter Selinger 2001-2017
</metadata>
<g transform="translate(0.000000,800.000000) scale(0.100000,-0.100000)"
fill="#000000" stroke="none">
<path d="M2804 6668 c-4 -6 -8 -118 -8 -247 0 -266 5 -293 76 -436 90 -181
204 -287 399 -369 37 -15 75 -26 85 -24 48 9 100 239 91 403 -9 168 -64 285
-196 415 -73 74 -232 182 -343 235 -79 38 -93 41 -104 23z"/>
<path d="M5029 6567 c-349 -199 -496 -423 -461 -701 11 -84 44 -204 71 -255
17 -31 48 -26 150 25 199 99 332 291 361 517 21 170 0 457 -34 457 -6 0 -45
-19 -87 -43z"/>
<path d="M1995 6510 c-7 -11 12 -225 26 -305 15 -82 62 -201 108 -271 45 -71
140 -161 213 -202 63 -36 195 -82 236 -82 48 0 57 38 56 220 0 144 -2 159 -27
220 -71 173 -246 306 -524 401 -46 15 -85 24 -88 19z"/>
<path d="M3887 6438 c-189 -286 -260 -599 -189 -839 39 -132 148 -309 238
-389 44 -38 49 -35 144 67 170 184 234 365 210 595 -14 142 -64 265 -175 434
-58 87 -151 207 -165 212 -4 2 -33 -34 -63 -80z"/>
<path d="M5894 6476 c-262 -95 -393 -194 -475 -361 -38 -77 -41 -90 -46 -186
-4 -85 9 -274 19 -285 2 -1 35 3 73 11 258 49 448 240 516 520 26 106 38 335
18 335 -8 -1 -55 -16 -105 -34z"/>
<path d="M1626 5383 c15 -64 58 -183 95 -262 90 -192 235 -360 376 -434 109
-57 202 -77 358 -77 l131 0 -8 83 c-13 121 -44 241 -85 327 -52 108 -167 222
-283 279 -133 65 -356 111 -536 111 -54 0 -54 0 -48 -27z"/>
<path d="M2710 5395 c-10 -12 -6 -34 19 -108 134 -387 365 -583 692 -590 105
-2 113 5 106 103 -18 232 -126 409 -305 499 -91 46 -153 65 -277 85 -151 24
-222 27 -235 11z"/>
<path d="M5200 5404 c-14 -2 -63 -9 -110 -15 -325 -43 -533 -209 -584 -464
-21 -103 -28 -198 -17 -215 17 -25 168 -18 274 14 123 37 196 76 273 148 104
98 172 209 233 381 52 148 43 167 -69 151z"/>
<path d="M6200 5403 c-170 -18 -360 -74 -454 -133 -66 -43 -185 -166 -218
-226 -44 -82 -79 -217 -85 -333 l-6 -103 149 4 c126 4 161 9 230 31 184 61
336 203 443 415 47 93 100 229 116 295 l13 57 -76 -2 c-43 0 -93 -3 -112 -5z"/>
<path d="M3963 5007 c-57 -88 -96 -169 -128 -267 -39 -119 -41 -271 -6 -378
38 -117 157 -282 202 -282 29 0 137 129 180 215 85 169 73 345 -35 539 -36 64
-146 219 -163 229 -5 3 -28 -22 -50 -56z"/>
<path d="M1420 4659 c-153 -11 -326 -63 -505 -150 -90 -44 -255 -141 -255
-150 0 -8 145 -131 222 -189 91 -68 230 -150 333 -197 298 -137 587 -132 882
15 109 54 223 135 223 158 0 51 -230 304 -345 379 -163 107 -343 150 -555 134z"/>
<path d="M6340 4651 c-107 -24 -203 -62 -283 -113 -77 -50 -291 -263 -342
-340 l-38 -58 24 -20 c46 -39 202 -132 277 -165 149 -65 178 -70 387 -69 176
0 196 2 277 27 210 64 392 171 621 365 70 60 85 77 76 88 -14 17 -150 94 -274
156 -250 125 -523 174 -725 129z"/>
<path d="M2840 4259 c-56 -11 -190 -75 -272 -130 -78 -52 -278 -247 -278 -270
0 -20 99 -64 258 -115 140 -45 230 -57 364 -52 133 6 221 34 333 105 76 49
255 223 255 247 0 33 -196 153 -322 198 -69 24 -93 28 -186 27 -59 -1 -127 -5
-152 -10z"/>
<path d="M4890 4259 c-83 -14 -239 -95 -352 -183 -26 -19 -23 -33 19 -93 68
-99 234 -218 371 -265 59 -20 85 -23 217 -22 160 0 197 7 370 66 105 36 205
84 205 98 0 20 -165 183 -245 243 -85 64 -230 137 -307 156 -54 13 -198 13
-278 0z"/>
<path d="M3712 3978 c-27 -27 -5 -221 63 -543 8 -38 10 -74 6 -78 -5 -5 -22
-2 -39 7 -29 15 -69 57 -214 226 -67 78 -156 153 -171 143 -18 -11 -27 -54
-15 -76 6 -12 59 -92 118 -177 160 -232 186 -283 128 -247 -79 48 -229 127
-262 137 -32 10 -40 10 -53 -3 -27 -26 -5 -53 102 -127 211 -146 316 -292 355
-495 29 -154 44 -386 37 -600 -7 -217 -34 -520 -48 -546 -10 -19 -23 -22 -159
-40 -257 -32 -662 -149 -868 -250 -58 -29 -101 -54 -95 -56 6 -2 51 7 99 21
372 103 606 144 949 166 404 25 859 2 1195 -61 58 -11 203 -45 324 -75 120
-30 220 -53 222 -51 9 9 -254 123 -401 174 -106 37 -364 98 -515 123 -74 12
-144 24 -156 26 -18 3 -22 13 -28 65 -10 96 -7 556 4 734 18 275 50 395 172
640 64 127 101 185 178 275 58 67 70 90 70 129 0 34 -22 51 -65 51 -60 0 -110
-48 -197 -190 -60 -97 -98 -133 -138 -132 -123 3 -172 171 -151 512 15 249 1
337 -51 309 -31 -17 -48 -65 -68 -200 -11 -72 -27 -158 -35 -192 -57 -223 -75
-213 -140 79 -59 268 -107 368 -153 322z"/>
<path d="M1655 3715 c-122 -27 -208 -76 -311 -179 -50 -50 -116 -129 -147
-176 -70 -108 -141 -250 -130 -260 31 -30 378 -40 505 -16 261 50 453 201 565
443 45 98 42 112 -29 140 -143 57 -322 76 -453 48z"/>
<path d="M6113 3719 c-120 -15 -273 -68 -273 -93 0 -59 101 -233 191 -330 78
-84 171 -140 309 -188 95 -33 95 -33 295 -33 210 0 315 9 315 27 0 19 -79 168
-135 254 -96 148 -232 273 -357 328 -90 40 -214 52 -345 35z"/>
<path d="M2531 3239 c-251 -32 -558 -220 -761 -465 -182 -219 -368 -510 -343
-535 12 -12 249 -61 407 -85 132 -19 403 -22 525 -4 191 26 372 87 515 172
236 141 393 318 531 599 l56 114 -105 51 c-138 66 -335 131 -455 149 -103 16
-266 18 -370 4z"/>
<path d="M5090 3230 c-123 -22 -298 -80 -434 -145 -112 -54 -109 -39 -41 -182
127 -269 354 -504 600 -623 119 -58 187 -81 320 -110 128 -28 450 -38 606 -20
149 17 439 77 456 94 7 6 -93 170 -201 331 -61 91 -116 155 -226 266 -80 80
-174 167 -208 193 -74 56 -224 135 -315 165 -158 53 -367 64 -557 31z"/>
</g>
</svg>
